HIERARCHY
ROOT Hips
{
  OFFSET 5.72205e-005 65.662 3.42586
  CHANNELS 6 Xposition Yposition Zposition Zrotation Xrotation Yrotation
  JOINT Chest
  {
    OFFSET 0 8.7983 -4.7612
    CHANNELS 3 Zrotation Xrotation Yrotation
    JOINT Chest2
    {
      OFFSET 0 8.0291 0.4195
      CHANNELS 3 Zrotation Xrotation Yrotation
      JOINT Chest3
      {
        OFFSET 0 9.9351 -2.2114
        CHANNELS 3 Zrotation Xrotation Yrotation
        JOINT Neck
        {
          OFFSET 0 22.3885 -0.4656
          CHANNELS 3 Zrotation Xrotation Yrotation
          JOINT Head
          {
            OFFSET -0.0001 12.643 3.4389
            CHANNELS 3 Zrotation Xrotation Yrotation
            End Site
            {
              OFFSET 0.0001 17.6655 0.5274
            }
          }
        }
        JOINT LeftCollar
        {
          OFFSET 2.2603 21.606 7.4023
          CHANNELS 3 Zrotation Xrotation Yrotation
          JOINT LeftShoulder
          {
            OFFSET 13.5163 -1.1332 -5.0146
            CHANNELS 3 Zrotation Xrotation Yrotation
            JOINT LeftElbow
            {
              OFFSET -0.0995 -28.05 -0.2431
              CHANNELS 3 Zrotation Xrotation Yrotation
              JOINT LeftWrist
              {
                OFFSET 0.0679 -23.3996 -0.1402
                CHANNELS 3 Zrotation Xrotation Yrotation
                JOINT LeftFinger1
                {
                  OFFSET 0.7932 -9.069 2.5189
                  CHANNELS 3 Zrotation Xrotation Yrotation
                  JOINT LeftFinger11
                  {
                    OFFSET -0.8272 -3.3923 0.5977
                    CHANNELS 3 Zrotation Xrotation Yrotation
                    JOINT LeftFinger12
                    {
                      OFFSET -0.5649 -2.3158 0.4082
                      CHANNELS 3 Zrotation Xrotation Yrotation
                      End Site
                      {
                        OFFSET -0.4919 -1.6479 0.2673
                      }
                    }
                  }
                }
                JOINT LeftFinger2
                {
                  OFFSET 0.9159 -9.2044 0.2193
                  CHANNELS 3 Zrotation Xrotation Yrotation
                  JOINT LeftFinger21
                  {
                    OFFSET 0.0117 -4.1944 -0.0248
                    CHANNELS 3 Zrotation Xrotation Yrotation
                    JOINT LeftFinger22
                    {
                      OFFSET 0.0071 -2.3249 -0.0142
                      CHANNELS 3 Zrotation Xrotation Yrotation
                      End Site
                      {
                        OFFSET -0.1475 -2.0882 0.0028
                      }
                    }
                  }
                }
                JOINT LeftFinger3
                {
                  OFFSET 0.6113 -8.7231 -2.0637
                  CHANNELS 3 Zrotation Xrotation Yrotation
                  JOINT LeftFinger31
                  {
                    OFFSET -0.1927 -3.8059 -0.2383
                    CHANNELS 3 Zrotation Xrotation Yrotation
                    JOINT LeftFinger32
                    {
                      OFFSET -0.1091 -2.1688 -0.1362
                      CHANNELS 3 Zrotation Xrotation Yrotation
                      End Site
                      {
                        OFFSET -0.2358 -1.9176 -0.0906
                      }
                    }
                  }
                }
                JOINT LeftFinger4
                {
                  OFFSET -0.6151 -8.0947 -3.5641
                  CHANNELS 3 Zrotation Xrotation Yrotation
                  JOINT LeftFinger41
                  {
                    OFFSET -0.4882 -2.341 -0.6462
                    CHANNELS 3 Zrotation Xrotation Yrotation
                    JOINT LeftFinger42
                    {
                      OFFSET -0.3575 -1.7167 -0.4742
                      CHANNELS 3 Zrotation Xrotation Yrotation
                      End Site
                      {
                        OFFSET -0.4187 -1.5237 -0.3496
                      }
                    }
                  }
                }
                JOINT LeftFinger0
                {
                  OFFSET -1.42 -1.8761 1.4223
                  CHANNELS 3 Zrotation Xrotation Yrotation
                  JOINT LeftFinger01
                  {
                    OFFSET -1.1471 -3.4929 2.6334
                    CHANNELS 3 Zrotation Xrotation Yrotation
                    JOINT LeftFinger02
                    {
                      OFFSET -0.823 -2.3 1.6571
                      CHANNELS 3 Zrotation Xrotation Yrotation
                      End Site
                      {
                        OFFSET -0.5822 -1.6914 1.1582
                      }
                    }
                  }
                }
              }
            }
          }
        }
        JOINT RightCollar
        {
          OFFSET -2.2603 21.606 7.4023
          CHANNELS 3 Zrotation Xrotation Yrotation
          JOINT RightShoulder
          {
            OFFSET -13.5187 -1.1334 -5.0155
            CHANNELS 3 Zrotation Xrotation Yrotation
            JOINT RightElbow
            {
              OFFSET 0.0994 -28.0499 -0.2431
              CHANNELS 3 Zrotation Xrotation Yrotation
              JOINT RightWrist
              {
                OFFSET -0.0679 -23.3996 -0.1402
                CHANNELS 3 Zrotation Xrotation Yrotation
                JOINT RightFinger1
                {
                  OFFSET -0.7932 -9.0691 2.5189
                  CHANNELS 3 Zrotation Xrotation Yrotation
                  JOINT RightFinger11
                  {
                    OFFSET 0.8272 -3.3923 0.5977
                    CHANNELS 3 Zrotation Xrotation Yrotation
                    JOINT RightFinger12
                    {
                      OFFSET 0.565 -2.3158 0.4082
                      CHANNELS 3 Zrotation Xrotation Yrotation
                      End Site
                      {
                        OFFSET 0.4919 -1.6479 0.2673
                      }
                    }
                  }
                }
                JOINT RightFinger2
                {
                  OFFSET -0.916 -9.2044 0.2193
                  CHANNELS 3 Zrotation Xrotation Yrotation
                  JOINT RightFinger21
                  {
                    OFFSET -0.0117 -4.1944 -0.0248
                    CHANNELS 3 Zrotation Xrotation Yrotation
                    JOINT RightFinger22
                    {
                      OFFSET -0.0071 -2.3249 -0.0142
                      CHANNELS 3 Zrotation Xrotation Yrotation
                      End Site
                      {
                        OFFSET 0.1475 -2.0882 0.0028
                      }
                    }
                  }
                }
                JOINT RightFinger3
                {
                  OFFSET -0.6113 -8.7231 -2.0637
                  CHANNELS 3 Zrotation Xrotation Yrotation
                  JOINT RightFinger31
                  {
                    OFFSET 0.1927 -3.8059 -0.2383
                    CHANNELS 3 Zrotation Xrotation Yrotation
                    JOINT RightFinger32
                    {
                      OFFSET 0.1091 -2.1688 -0.1362
                      CHANNELS 3 Zrotation Xrotation Yrotation
                      End Site
                      {
                        OFFSET 0.2358 -1.9176 -0.0906
                      }
                    }
                  }
                }
                JOINT RightFinger4
                {
                  OFFSET 0.6151 -8.0947 -3.564
                  CHANNELS 3 Zrotation Xrotation Yrotation
                  JOINT RightFinger41
                  {
                    OFFSET 0.4882 -2.341 -0.6462
                    CHANNELS 3 Zrotation Xrotation Yrotation
                    JOINT RightFinger42
                    {
                      OFFSET 0.3574 -1.7166 -0.4742
                      CHANNELS 3 Zrotation Xrotation Yrotation
                      End Site
                      {
                        OFFSET 0.4187 -1.5237 -0.3496
                      }
                    }
                  }
                }
                JOINT RightFinger0
                {
                  OFFSET 1.4199 -1.8761 1.4221
                  CHANNELS 3 Zrotation Xrotation Yrotation
                  JOINT RightFinger01
                  {
                    OFFSET 1.1472 -3.4929 2.6336
                    CHANNELS 3 Zrotation Xrotation Yrotation
                    JOINT RightFinger02
                    {
                      OFFSET 0.8229 -2.3 1.6571
                      CHANNELS 3 Zrotation Xrotation Yrotation
                      End Site
                      {
                        OFFSET 0.5822 -1.6914 1.1582
                      }
                    }
                  }
                }
              }
            }
          }
        }
      }
    }
  }
  JOINT RightHip
  {
    OFFSET -9.412 3.9771 -0.7758
    CHANNELS 3 Zrotation Xrotation Yrotation
    JOINT RightKnee
    {
      OFFSET -0.7531 -40.938 0
      CHANNELS 3 Zrotation Xrotation Yrotation
      JOINT RightAnkle
      {
        OFFSET 0 -40.1986 0
        CHANNELS 3 Zrotation Xrotation Yrotation
        JOINT RightToe
        {
          OFFSET 0 -4.4182 9.239
          CHANNELS 3 Zrotation Xrotation Yrotation
          End Site
          {
            OFFSET 0 0 6.1981
          }
        }
      }
    }
  }
  JOINT LeftHip
  {
    OFFSET 9.4119 3.9773 -0.7758
    CHANNELS 3 Zrotation Xrotation Yrotation
    JOINT LeftKnee
    {
      OFFSET 0.7532 -40.9383 0
      CHANNELS 3 Zrotation Xrotation Yrotation
      JOINT LeftAnkle
      {
        OFFSET 0 -40.1986 0
        CHANNELS 3 Zrotation Xrotation Yrotation
        JOINT LeftToe
        {
          OFFSET 0 -4.4182 9.239
          CHANNELS 3 Zrotation Xrotation Yrotation
          End Site
          {
            OFFSET 0 0 6.1981
          }
        }
      }
    }
  }
}
MOTION
Frames:	5
Frame Time:	0.0333333
5.72205e-005 65.662 3.42586 0 0 -0 0 0 -0 0 0 -0 0 0 -0 0 0 -0 0 0 -0 0 0 -12.5014 88.1196 14.2451 10.6914 -0.00160068 -0.00239207 0.000740045 -8.4365e-005 7.00714e-005 -9.52055e-007 9.93923e-017 -1.98785e-016 -1.59028e-015 9.93923e-017 -5.96354e-016 -1.59028e-015 -9.93923e-017 -5.96354e-016 -1.59028e-015 9.93923e-017 -1.98785e-016 -1.59028e-015 -0.0128176 0.00232552 8.52707e-005 9.93923e-017 5.96354e-016 -0 9.93923e-017 -1.98785e-016 -1.59028e-015 -0.0160551 0.00299681 0.000857156 -2.48481e-016 0 3.18055e-015 9.93923e-017 -1.98785e-016 -1.59028e-015 -0.0125865 0.0031206 0.00282719 0 1.98785e-016 -0 9.93923e-017 -1.98785e-016 -1.59028e-015 9.93923e-017 -5.96354e-016 -1.59028e-015 -9.93923e-017 -5.96354e-016 -1.59028e-015 -0.865644 0.16582 7.03859 -88.0329 10.2057 -10.5567 0.0015593 -0.00248883 -0.000788628 7.87605e-005 4.10553e-005 1.24965e-005 -3.97569e-016 -7.95139e-016 3.18055e-015 -1.98785e-016 -3.97569e-016 3.18055e-015 -1.98785e-016 0 3.18055e-015 -3.97569e-016 -7.95139e-016 3.18055e-015 0.0129473 0.00231697 -8.70038e-005 9.93923e-017 -7.95139e-016 1.59028e-015 -3.97569e-016 -7.95139e-016 3.18055e-015 0.0163314 0.00303369 -0.000872333 3.97569e-016 7.95139e-016 -3.18055e-015 -3.97569e-016 -7.95139e-016 3.18055e-015 0.0145763 0.00367772 -0.00326275 9.93923e-017 -3.97569e-016 -0 -3.97569e-016 -7.95139e-016 3.18055e-015 -1.98785e-016 -3.97569e-016 3.18055e-015 -1.98785e-016 0 3.18055e-015 3.42482 1.32465 -0.0626183 0.000117508 0.717283 0.000978199 -3.4257 -2.04197 -0.0604716 6.47761e-025 0 -0 -3.42483 1.34017 0.0627307 -0.000193936 0.682302 -0.0013703 3.42574 -2.02253 0.0595886 -8.45714e-024 0 -7.40531e-025 
6.26588 86.5032 1.47507 133.333 0.0398478 9.5049e-008 0.00405915 -1.81841 -0.205914 0.00155545 -3.6368 -0.41201 0.00155808 -3.6368 -0.41201 9.69555e-007 36.2936 -2.09183e-006 1.09474e-006 -42.8285 3.62205e-006 -16.0149 7.90628 -4.30101 83.4928 -39.4603 4.47744 -9.48032 -23.7899 7.97516 -24.5392 -25.6395 22.8956 3.18055e-015 -1.59028e-015 1.59028e-015 6.36111e-015 0 1.59028e-015 -3.18055e-015 1.59028e-015 -5.56597e-015 3.18055e-015 -1.59028e-015 1.59028e-015 -0.0128924 0.00233504 8.01606e-005 -3.18055e-015 -1.59028e-015 -0 3.18055e-015 -1.59028e-015 1.59028e-015 -0.0160831 0.00300344 0.000865717 3.18055e-015 -3.97569e-015 7.95139e-015 3.18055e-015 -1.59028e-015 1.59028e-015 -0.0126764 0.003151 0.00285017 -3.18055e-015 7.95139e-016 -1.19271e-015 3.18055e-015 -1.59028e-015 1.59028e-015 6.36111e-015 0 1.59028e-015 -3.18055e-015 1.59028e-015 -5.56597e-015 15.0643 7.81399 -0.863418 -83.5855 -43.6037 -4.72554 9.54584 -23.5589 -8.22671 26.1087 -24.5868 -21.867 -3.18055e-015 1.59028e-015 -7.95139e-016 -3.18055e-015 1.59028e-015 -4.77083e-015 0 0 -3.57812e-015 -3.18055e-015 1.59028e-015 -7.95139e-016 0.0129526 0.00230876 -8.33562e-005 -3.18055e-015 1.59028e-015 3.97569e-016 -3.18055e-015 1.59028e-015 -7.95139e-016 0.0163123 0.00303597 -0.000862777 3.18055e-015 -1.59028e-015 -1.98785e-015 -3.18055e-015 1.59028e-015 -7.95139e-016 0.0146289 0.00368506 -0.00327724 3.18055e-015 -4.77083e-015 -1.19271e-015 -3.18055e-015 1.59028e-015 -7.95139e-016 -3.18055e-015 1.59028e-015 -4.77083e-015 0 0 -3.57812e-015 -24.0173 -53.7441 -7.75369 70.5203 41.2865 -66.9772 -18.4214 27.3831 21.8838 -3.47873e-015 -3.18055e-015 -5.76476e-015 25.3332 -47.2205 10.2051 -60.8308 30.626 60.3399 17.2143 29.2371 -21.2239 3.97569e-015 3.18055e-015 3.18055e-015 
-2.83649 91.0022 0.385997 -166.667 -0.139462 -1.66753e-008 -0.0160571 -2.49628 -0.299945 -0.0452973 -4.99245 -0.601449 -0.0452958 -4.99245 -0.601449 -3.30192e-006 52.6257 3.72073e-006 -2.76099e-006 -62.7741 -3.31891e-006 -23.8097 10.9737 -0.513783 82.2133 -63.6606 2.37231 -14.6506 -34.834 10.4422 -35.7692 -37.1213 32.58 -6.36111e-015 -4.47266e-016 -9.93923e-016 1.6217e-005 -4.24024e-005 -2.7925e-006 5.17255e-033 4.96962e-016 -5.96354e-016 -6.36111e-015 -4.47266e-016 -9.93923e-016 -0.012816 0.00230874 8.60213e-005 -0 -1.04362e-015 -0 -6.36111e-015 -4.47266e-016 -9.93923e-016 -0.0160051 0.00298206 0.000853136 3.18055e-015 -7.45443e-016 7.95139e-016 -6.36111e-015 -4.47266e-016 -9.93923e-016 -0.0126634 0.00314492 0.00284912 2.27592e-032 -2.18663e-015 5.96354e-016 -6.36111e-015 -4.47266e-016 -9.93923e-016 1.6217e-005 -4.24024e-005 -2.7925e-006 5.17255e-033 4.96962e-016 -5.96354e-016 22.7866 10.7745 -4.55735 -82.7636 -67.837 -3.31774 14.7646 -34.5624 -10.7538 38.1394 -35.5952 -31.0173 -9.54166e-015 3.57812e-015 3.97569e-016 -3.18055e-015 3.27995e-015 -1.39149e-015 -1.6897e-032 4.87022e-015 1.98785e-016 -9.54166e-015 3.57812e-015 3.97569e-016 0.0129064 0.00229431 -8.84629e-005 2.37937e-032 2.28602e-015 -5.96354e-016 -9.54166e-015 3.57812e-015 3.97569e-016 0.0162859 0.00301949 -0.000860791 6.36111e-015 -5.96354e-016 -2.18663e-015 -9.54166e-015 3.57812e-015 3.97569e-016 0.0145159 0.00365669 -0.00324505 -5.33989e-008 2.44549e-006 1.02021e-006 -9.54166e-015 3.57812e-015 3.97569e-016 -3.18055e-015 3.27995e-015 -1.39149e-015 -1.6897e-032 4.87022e-015 1.98785e-016 -49.5496 -76.1961 -21.0857 113.469 29.6639 -94.1802 -35.2296 37.1999 36.8745 -5.07968e-006 2.52113e-006 -5.67366e-006 53.2322 -68.3532 26.2617 -100.769 20.6477 90.1429 36.4692 36.0985 -39.6577 -6.36111e-015 0 4.77083e-015 
-0.805125 90.9478 0.503175 180 -0.537949 -7.01659e-015 -0.0124814 -2.03415 -0.279242 -0.0349232 -4.06822 -0.559459 -0.034923 -4.06821 -0.559458 1.29303e-005 48.9962 -1.74389e-005 5.46249e-007 -59.8375 1.25593e-006 -21.699 9.49868 -1.41712 82.3717 -58.2815 2.7232 -13.8711 -33.3066 9.69562 -32.3524 -34.3288 31.0162 -6.36111e-015 -7.95139e-016 -3.97569e-016 -9.54166e-015 0 -1.98785e-016 -9.54166e-015 -3.97569e-016 1.98785e-016 -6.36111e-015 -7.95139e-016 -3.97569e-016 -0.0128332 0.00233814 8.93997e-005 3.18055e-015 -2.18663e-014 1.2921e-014 -6.36111e-015 -7.95139e-016 -3.97569e-016 -0.0160912 0.00300969 0.00086419 3.18055e-015 -1.19271e-015 -1.98785e-016 -6.36111e-015 -7.95139e-016 -3.97569e-016 -0.0126473 0.00314032 0.00284767 0 0 -7.95139e-016 -6.36111e-015 -7.95139e-016 -3.97569e-016 -9.54166e-015 0 -1.98785e-016 -9.54166e-015 -3.97569e-016 1.98785e-016 20.7289 9.31785 -3.78682 -82.7197 -62.4517 -3.40544 14.0108 -33.1641 -9.97704 34.4832 -32.8819 -29.6525 -6.77639e-006 -2.12153e-006 -1.48021e-006 1.27222e-014 0 -0 1.37935e-033 -3.97569e-016 1.98785e-016 -6.77639e-006 -2.12153e-006 -1.48021e-006 0.0129273 0.00231071 -8.89683e-005 -9.4621e-006 -3.47119e-006 2.00479e-006 -6.77639e-006 -2.12153e-006 -1.48021e-006 0.0163208 0.00302507 -0.000876732 -9.54166e-015 -4.96962e-016 -3.97569e-016 -6.77639e-006 -2.12153e-006 -1.48021e-006 0.0145591 0.00367382 -0.00326124 -0 0 1.98785e-016 -6.77639e-006 -2.12153e-006 -1.48021e-006 1.27222e-014 0 -0 1.37935e-033 -3.97569e-016 1.98785e-016 -40.0078 -71.0678 -14.7764 104.725 33.4346 -90.3895 -31.3631 35.5015 33.6964 -3.83877e-006 6.70856e-007 -4.53949e-006 43.6366 -63.3364 19.9029 -92.4109 24.0815 84.9782 32.3727 35.0423 -35.7609 1.59028e-015 1.60452e-007 7.15625e-015 
-0.872318 91.041 0.383889 -180 -0.89665 1.21024e-007 -0.0140461 -1.77864 -0.279344 -0.0367994 -3.55718 -0.55953 -0.0367995 -3.55718 -0.55953 1.99228e-005 48.9962 -2.71207e-005 5.88571e-007 -61.0642 4.00864e-007 -21.4198 8.84062 -1.45675 82.3716 -58.2814 2.72311 -14.2389 -34.0576 9.45693 -31.6454 -34.1285 31.4377 -6.70295e-006 1.20055e-005 -2.99723e-006 1.12835e-007 -2.93523e-006 1.7038e-006 -3.01351e-006 2.71679e-006 -1.50342e-006 -6.70295e-006 1.20055e-005 -2.99723e-006 -0.0128529 0.00231771 8.28408e-005 3.18055e-015 -9.93923e-016 3.97569e-016 -6.70295e-006 1.20055e-005 -2.99723e-006 -0.0159738 0.00297698 0.000849107 1.90024e-006 -2.96823e-006 1.59894e-006 -6.70295e-006 1.20055e-005 -2.99723e-006 -0.0125426 0.0031067 0.00281062 -6.89673e-034 1.98785e-016 1.98785e-016 -6.70295e-006 1.20055e-005 -2.99723e-006 1.12835e-007 -2.93523e-006 1.7038e-006 -3.01351e-006 2.71679e-006 -1.50342e-006 20.4768 8.6565 -3.83785 -82.7194 -62.4516 -3.40521 14.411 -34.0134 -9.7202 33.731 -32.6604 -30.1335 9.54166e-015 7.95139e-016 -0 6.36111e-015 6.95746e-016 -3.97569e-016 -3.18055e-015 2.98177e-016 -0 9.54166e-015 7.95139e-016 -0 0.0129117 0.0023005 -8.33374e-005 9.54166e-015 -2.98177e-016 -1.98785e-016 9.54166e-015 7.95139e-016 -0 0.0163096 0.00303452 -0.000869869 -6.36111e-015 -9.93923e-017 1.98785e-016 9.54166e-015 7.95139e-016 -0 0.0146106 0.00368515 -0.0032757 5.08763e-008 2.42932e-006 1.70677e-006 9.54166e-015 7.95139e-016 -0 6.36111e-015 6.95746e-016 -3.97569e-016 -3.18055e-015 2.98177e-016 -0 -40.0177 -70.8009 -14.8074 104.763 33.4303 -90.4342 -31.5706 35.641 33.8934 1.76556e-031 3.18055e-015 -3.18055e-015 43.2754 -62.9169 19.8486 -92.445 24.0813 85.0328 32.9254 35.0586 -36.0354 -2.12454e-006 2.48683e-006 4.58933e-006 
